<?xml version="1.0" standalone="yes"?>
<svg xmlns="http://www.w3.org/2000/svg" width="190" height="190">
<path style="fill:#010101; stroke:none;" d="M0 0L0 190L190 190L190 0L0 0z"/>
<path style="fill:#eaeff2; stroke:none;" d="M25 93L26 93L26 90L131 90C138.63 90 161.642 86.2786 166 93C173.228 83.9615 162.649 78.1267 157.857 71.625C149.842 60.7503 151.877 48.8632 138 40.8796C125.447 33.6578 108.148 34.0547 96 41.966C91.7486 44.7349 88.4986 50.9027 83.8302 52.6474C79.602 54.2276 73.5245 50.9559 69 51.2099C56.2859 51.9236 49.6931 58.639 42.0995 67.8557C34.7059 76.8298 19.4232 77.353 25 93z"/>
<path style="fill:#d5dadd; stroke:none;" d="M23 90C23.0066 99.8984 26.4335 109.308 37 112.362C47.8975 115.512 62.6805 113 74 113L128 113C136.377 113 146.914 114.699 155 112.362C165.468 109.336 168.973 99.8544 169 90L167 93L166 93L166 90L59 90L34 90C30.4704 90 26.8554 89.0082 26 93L25 93L23 90z"/>
<path style="fill:#7bc1e5; stroke:none;" d="M79 124L106 124L125 124L136 124C138.398 124 154.726 125.069 149.098 118.738C145.971 115.219 136.248 117 132 117L92 117C85.3623 117 79.271 115.851 79 124z"/>
<path style="fill:#4299c5; stroke:none;" d="M79 124L79 125L115 126L150 125L128 124L79 124z"/>
<path style="fill:#7bc1e5; stroke:none;" d="M23 133L48 134L95 134C94.373 125.952 86.2414 128 80 128L38 128C32.0883 128 25.4055 126.458 23 133M96 133L121 134L168 134C167.373 125.952 159.241 128 153 128L111 128C105.088 128 98.4055 126.458 96 133z"/>
<path style="fill:#4299c5; stroke:none;" d="M24 134L24 135C37.5895 139.017 55.8272 136 70 136C78.0176 136 87.2831 137.281 95 135L73 134L24 134M97 134L97 135C104.717 137.281 113.982 136 122 136C136.173 136 154.411 139.017 168 135L146 134L97 134z"/>
<path style="fill:#7bc1e5; stroke:none;" d="M64 144L91 144L110 144L121 144C123.398 144 139.726 145.069 134.098 138.738C130.971 135.219 121.248 137 117 137L77 137C70.3623 137 64.271 135.851 64 144z"/>
<path style="fill:#4299c5; stroke:none;" d="M64 144L64 145L100 146L135 145L113 144L64 144z"/>
<path style="fill:#7bc1e5; stroke:none;" d="M88 154L123 153L159 154C160.618 145.32 150.932 147 145 147L102 147C95.22 147 88.283 145.491 88 154z"/>
<path style="fill:#4299c5; stroke:none;" d="M89 153C92.0572 157.716 99.9381 156 105 156L142 156C147.481 156 154.316 157.2 159 154L135 153L89 153z"/>
</svg>
