<?xml version="1.0" encoding="utf-8"?>
<!-- Uploaded to: SVG Repo, www.svgrepo.com, Generator: SVG Repo Mixer Tools -->
<svg width="800px" height="800px" viewBox="0 -5.66 68.678 68.678" xmlns="http://www.w3.org/2000/svg">
  <g id="raining_snowing" data-name="raining snowing" transform="translate(-1071.416 -1390.585)">
    <path id="Path_66" data-name="Path 66" d="M1110.481,1433.13h-10.427v-.111a3.743,3.743,0,0,1,.289-2.655,4.007,4.007,0,0,0-.533-1.984l-.746-1.287a3.965,3.965,0,0,0-3.184-2,4.115,4.115,0,0,0-1.67-.944l-1.446-.386c-.107-.03-.224-.055-.341-.08l-.853-.87a4.181,4.181,0,0,0-1.543-.949,4.019,4.019,0,0,0-3.458-2h-1.492a79.206,79.206,0,0,0-5.006,2.965l-1.025,1.023c-.046.018-.106.032-.168.057l-1.238.317a4.051,4.051,0,0,0-1.6.863,3.937,3.937,0,0,0-3.471,2.033l-.092.147a10.435,10.435,0,0,1,8.8-14.993l1.108-.052.431-1.026a13.152,13.152,0,0,1,9-7.646l.959-.223.315-.934a17.394,17.394,0,0,1,33.7,3.157l.183,1.386,1.4.147a13.015,13.015,0,0,1,6.6,23.3l.2-.717a5.067,5.067,0,0,0,.173-1.256,4.394,4.394,0,0,0-1.259-3.117,4.452,4.452,0,0,0-3.128-1.277,4.762,4.762,0,0,0-1.33.191l-11.352,3.053-.963.254a11.74,11.74,0,0,0-4.788,2.863,12.053,12.053,0,0,0-2.041,2.748Z" fill="#f4f4f4"/>
    <path id="Path_67" data-name="Path 67" d="M1131.7,1427.665a1.03,1.03,0,0,0-.741-.281,1.481,1.481,0,0,0-.4.053l-11.413,3.072-.969.254a8.269,8.269,0,0,0,2.573,16.129h.005a8.239,8.239,0,0,0,7.839-5.674l.274-1,3.061-11.42a1.523,1.523,0,0,0,.051-.4,1.075,1.075,0,0,0-.274-.736Z" fill="#27b7ff"/>
    <path id="Path_68" data-name="Path 68" d="M1096.982,1430.364a.657.657,0,0,0-.081-.3l-.752-1.3a.613.613,0,0,0-.547-.315.582.582,0,0,0-.335.094l-1.91,1.1.4-1.475a.8.8,0,0,0,.014-.168.619.619,0,0,0-.471-.611l-1.432-.387a.53.53,0,0,0-.168-.018.619.619,0,0,0-.614.477l-1.107,4.135-2.772,1.6v-3.019l3.026-3.029a.631.631,0,0,0,0-.9l-1.05-1.057a.642.642,0,0,0-.91,0l-1.066,1.075v-2.4a.639.639,0,0,0-.64-.638h-1.492a.638.638,0,0,0-.635.638v2.406l-1.081-1.082a.629.629,0,0,0-.447-.187.656.656,0,0,0-.456.191l-1.052,1.059a.609.609,0,0,0-.177.439.62.62,0,0,0,.188.454l3.025,3.029v3.027l-2.625-1.525-1.106-4.129a.623.623,0,0,0-.609-.475.516.516,0,0,0-.193.03l-1.406.378a.625.625,0,0,0-.473.61.606.606,0,0,0,.026.189l.386,1.449-2.082-1.2a.65.65,0,0,0-.878.241l-.736,1.285a.536.536,0,0,0-.081.306.608.608,0,0,0,.319.561l2.077,1.2-1.467.4a.626.626,0,0,0-.467.613.776.776,0,0,0,.02.191l.375,1.41a.654.654,0,0,0,.772.455l4.142-1.109,2.625,1.508-2.625,1.508-4.131-1.112a.817.817,0,0,0-.163-.019.641.641,0,0,0-.62.469l-.38,1.445a.706.706,0,0,0-.015.16.629.629,0,0,0,.467.615l1.467.391-2.077,1.209a.6.6,0,0,0-.319.547.558.558,0,0,0,.086.322l.741,1.287a.64.64,0,0,0,.548.32.658.658,0,0,0,.311-.082l2.091-1.209-.391,1.467a.7.7,0,0,0-.021.174.628.628,0,0,0,.473.609l1.437.387a.627.627,0,0,0,.162.026.642.642,0,0,0,.609-.471l1.106-4.145,2.625-1.509v3.205l-3.036,3.029a.641.641,0,0,0-.177.451.648.648,0,0,0,.177.447l1.062,1.059a.646.646,0,0,0,.446.187.656.656,0,0,0,.447-.187l1.081-1.08v2.217a.637.637,0,0,0,.635.636h1.492a.637.637,0,0,0,.64-.636v-2.217l1.071,1.08a.646.646,0,0,0,.905,0l1.05-1.063a.661.661,0,0,0,.188-.447.652.652,0,0,0-.188-.451l-3.026-3.029v-3.205l2.772,1.6,1.107,4.145a.64.64,0,0,0,.614.472.733.733,0,0,0,.152-.021l1.453-.385a.643.643,0,0,0,.466-.617c0-.065,0-.1,0-.141l-.412-1.5,1.924,1.112a.7.7,0,0,0,.321.083.639.639,0,0,0,.547-.312l.752-1.3a.688.688,0,0,0,.081-.318.6.6,0,0,0-.315-.547l-1.919-1.109,1.468-.4a.642.642,0,0,0,.472-.613.6.6,0,0,0-.021-.156l-.4-1.454a.617.617,0,0,0-.6-.462.525.525,0,0,0-.188.029l-4.117,1.1-2.777-1.6,2.777-1.6,4.143,1.108a.7.7,0,0,0,.162.013.615.615,0,0,0,.6-.463l.385-1.445a.452.452,0,0,0,.031-.162.636.636,0,0,0-.467-.615l-1.473-.393,1.909-1.109A.636.636,0,0,0,1096.982,1430.364Z" fill="#27b7ff"/>
  </g>
</svg>