<?xml version="1.0" standalone="no"?>
<!DOCTYPE svg PUBLIC "-//W3C//DTD SVG 20010904//EN"
 "http://www.w3.org/TR/2001/REC-SVG-20010904/DTD/svg10.dtd">
<svg version="1.0" xmlns="http://www.w3.org/2000/svg"
 width="474.000000pt" height="570.000000pt" viewBox="0 0 474.000000 570.000000"
 preserveAspectRatio="xMidYMid meet">
<metadata>
Created by potrace 1.16, written by Peter Selinger 2001-2019
</metadata>
<g transform="translate(0.000000,570.000000) scale(0.100000,-0.100000)"
fill="#000000" stroke="none">
<path d="M2255 5478 c-732 -41 -1372 -589 -1560 -1338 -52 -206 -69 -452 -41
-617 84 -503 490 -1281 1164 -2233 221 -311 537 -730 552 -730 13 0 282 353
491 645 661 921 1087 1704 1205 2213 92 399 -13 901 -270 1287 -176 264 -398
462 -672 599 -276 138 -546 192 -869 174z m401 -247 c538 -111 966 -496 1145
-1031 78 -235 102 -517 59 -719 -86 -408 -388 -1003 -887 -1751 -184 -275
-589 -839 -603 -839 -7 0 -133 170 -319 429 -669 932 -1107 1753 -1181 2213
-18 108 -7 363 19 489 101 472 411 878 826 1082 160 79 289 117 500 150 74 11
343 -3 441 -23z"/>
<path d="M2235 4691 c-326 -53 -592 -254 -736 -556 -68 -143 -90 -232 -96
-401 -6 -155 3 -233 43 -358 99 -311 342 -557 643 -650 459 -143 944 77 1155
525 74 157 90 235 91 439 0 196 -10 250 -73 400 -105 252 -315 458 -556 547
-137 51 -345 74 -471 54z m323 -242 c269 -71 479 -292 549 -575 23 -95 22
-276 -2 -369 -69 -268 -248 -467 -506 -563 -69 -25 -84 -27 -229 -26 -141 0
-162 3 -228 26 -125 45 -216 104 -307 199 -168 177 -245 407 -215 644 33 266
182 486 410 604 166 87 350 107 528 60z"/>
<path d="M1565 1263 c-11 -2 -66 -15 -122 -29 -322 -76 -576 -207 -658 -338
-26 -43 -30 -59 -30 -121 0 -68 3 -76 38 -128 143 -207 605 -367 1207 -417
165 -14 561 -14 730 0 745 61 1260 283 1260 545 0 154 -177 297 -497 404 -138
46 -353 96 -363 84 -23 -26 -132 -185 -129 -187 2 -1 49 -8 104 -15 333 -43
612 -146 659 -245 15 -31 15 -39 3 -68 -79 -189 -739 -322 -1512 -305 -537 12
-988 89 -1180 202 -183 107 -134 223 137 320 101 36 355 92 463 102 36 3 65 8
65 10 0 12 -136 193 -145 192 -5 -1 -19 -3 -30 -6z"/>
</g>
</svg>
