<?xml version="1.0" standalone="yes"?>
<svg xmlns="http://www.w3.org/2000/svg" width="283" height="214">
<path style="fill:#2c6182; stroke:none;" d="M0 0L0 15L1 15L1 12C14.418 14.5802 7.12295 6.44736 6 0L0 0z"/>
<path style="fill:#103c65; stroke:none;" d="M5 1C8.26007 7.50433 12.6081 13.134 1 12C-1.02215 23.4433 8.1324 31.3928 11.4259 41.7145C13.8563 49.3313 11.5959 55.5389 11.179 63C10.6786 71.9548 12.5744 78.2262 9 87L15 88L13.9066 97.8302L5 112L17 127L13 132L27 131L25 128L33 127L32 146L34 149L30 153L33 154L33 155L20 161L20 162L36 163C36.9971 173.82 34.3331 177.2 30 187L38 189L27 198L29 208L24 214L198 214L191 212L191 208L187 208C183.489 197.373 168.947 199.086 162 193L157 193L160 192L160 191C152.741 190.559 139.26 195.255 143 184L138 188L140 184L137 187L136 187L136 184C124.823 183.877 109.733 177.386 114 164L104 162L105 160L91.939 148.035L88 134C93.6002 132.8 89.0851 126.035 89 122L85 122L88 104L89 104C89.6737 100.728 92.1952 96.9177 88 96L92 86C101.403 82.8992 103.007 62.491 111 56L110 52L113 50L128 45L126 41L129 45L130 45L130 40L131 40L131 44L132 44L132 34L133 34L134 45L135 45L135 37L150 33L150 30L168.999 26.1543L195 33L200 33L199 36L202 36L201 41L202 41L205 35L204 37L205 37C217.473 36.9563 227.453 54.6682 235.015 62.5262C238.045 65.6753 242.65 65.3585 245 69L254 67L253 71C256.835 69.7218 263.734 70.0631 263 73L270 72L279.667 80.4437L283 93L283 0L110 0L109 4L107 4L107 0L39 0L5 1z"/>
<path style="fill:#5384a1; stroke:none;" d="M107 0L108 1L107 0z"/>
<path style="fill:#a2b6c4; stroke:none;" d="M108 0L109 1L108 0z"/>
<path style="fill:#2c6182; stroke:none;" d="M109 0L110 1L109 0M106 1L109 4L109 3L106 1z"/>
<path style="fill:#e0e7ec; stroke:none;" d="M107.667 1.33333L108.333 1.66667L107.667 1.33333z"/>
<path style="fill:#5384a1; stroke:none;" d="M109.333 1.66667L109.667 2.33333L109.333 1.66667z"/>
<path style="fill:#a2b6c4; stroke:none;" d="M107.667 2.33333L108.333 2.66667L107.667 2.33333z"/>
<path style="fill:#2c6182; stroke:none;" d="M51 4L52 7L53 7L51 4z"/>
<path style="fill:#5384a1; stroke:none;" d="M50.3333 5.66667L50.6667 6.33333L50.3333 5.66667z"/>
<path style="fill:#a2b6c4; stroke:none;" d="M51.3333 5.66667L51.6667 6.33333L51.3333 5.66667z"/>
<path style="fill:#2c6182; stroke:none;" d="M133 5L132 10L133 10L135 5L133 5z"/>
<path style="fill:#5384a1; stroke:none;" d="M1 7L1 8L5 10L6 7L1 7M134 7L131 12L134 9L136 12L133 14L134 15C136.44 12.0308 136.44 9.96921 134 7z"/>
<path style="fill:#a2b6c4; stroke:none;" d="M134 9L133 13L136 12L134 9z"/>
<path style="fill:#2c6182; stroke:none;" d="M136 9L137 10L136 9M128 10L128 12L131 12L131 10L128 10M137 12L141 11L137 12M237 11L238 14L239 14L237 11M132 12L133 13L132 12M136 12L137 13L136 12M235 12L236 13L235 12z"/>
<path style="fill:#5384a1; stroke:none;" d="M237 12L239 15L237 12z"/>
<path style="fill:#2c6182; stroke:none;" d="M133 14L135 18L133 14M236 14L237 15L236 14z"/>
<path style="fill:#a2b6c4; stroke:none;" d="M237 14L240 17L237 14z"/>
<path style="fill:#5384a1; stroke:none;" d="M236 15L237 16L236 15z"/>
<path style="fill:#e0e7ec; stroke:none;" d="M237 15L236 16L239 18L237 15z"/>
<path style="fill:#2c6182; stroke:none;" d="M239 15L240 16L239 15z"/>
<path style="fill:#5384a1; stroke:none;" d="M49.3333 16.6667L49.6667 17.3333L49.3333 16.6667z"/>
<path style="fill:#2c6182; stroke:none;" d="M232 16L235 18L235 17L232 16z"/>
<path style="fill:#5384a1; stroke:none;" d="M233 16L233 17L236 18L233 16z"/>
<path style="fill:#a2b6c4; stroke:none;" d="M235 16L236 17L235 16z"/>
<path style="fill:#5384a1; stroke:none;" d="M237 22L238 22L243 17C239.349 16.2541 237.942 18.7472 237 22z"/>
<path style="fill:#2c6182; stroke:none;" d="M243 16L244 17L243 16z"/>
<path style="fill:#a2b6c4; stroke:none;" d="M236 17L238 19L236 17z"/>
<path style="fill:#2c6182; stroke:none;" d="M240 17L240 18L243 18L240 17M236 18L237 19L236 18M239 18L240 19L239 18M0 19L0 30C14.0231 38.5499 10.2806 54.5714 9.17361 68C8.15625 80.3416 9.23859 92.0592 5 104L8 103C1.68955 113.034 9.63935 120.265 11 131L10 131C6.19595 127.315 3.65278 134.201 2 137L0 153L5 151L6 154L10 158L5 155L4 155L3 157L2 157L0 155L0 162L27 163L26 167C28.1579 167.978 28.5007 168.188 27 170L27 171L31 183L26 184L28 190L28 191C24.2188 193.185 21.3526 199.816 22 204C17.6441 205.414 15.8692 208.636 15 213L24 214L29 208L27 198L38 189L30 187C35.878 177.954 37.7273 173.546 36 163L20 162L20 161L33 155L33 154L30 153L34 149L32 146C35.3895 141.639 34.0169 132.158 33 127L25 128L27 131L13 132L17 127L5 112L13.9105 98.7145L15 88L9 87C13.265 79.3861 11.7086 72.214 11.3843 64C11.2253 59.9745 13.1085 56.1497 12.9599 52C12.5349 40.135 7.1348 28.3885 0 19M238 19L238 22L239 22L238 19z"/>
<path style="fill:#5384a1; stroke:none;" d="M127.667 21.3333L128.333 21.6667L127.667 21.3333z"/>
<path style="fill:#2c6182; stroke:none;" d="M98 22L99 23L98 22z"/>
<path style="fill:#5384a1; stroke:none;" d="M99 22L99 23L102 24L99 22z"/>
<path style="fill:#2c6182; stroke:none;" d="M101 22L102 23L101 22z"/>
<path style="fill:#e0e7ec; stroke:none;" d="M127 22L128 23L127 22z"/>
<path style="fill:#a2b6c4; stroke:none;" d="M128 22L129 23L128 22z"/>
<path style="fill:#2c6182; stroke:none;" d="M129 22L130 23L129 22M237 22L238 23L237 22z"/>
<path style="fill:#5384a1; stroke:none;" d="M97 23L97 26L98 26L97 23z"/>
<path style="fill:#a2b6c4; stroke:none;" d="M98 23L98 24L102 25L102 24L98 23z"/>
<path style="fill:#2c6182; stroke:none;" d="M127.667 23.3333L128.333 23.6667L127.667 23.3333z"/>
<path style="fill:#5384a1; stroke:none;" d="M0 24L0 27L1 27L0 24z"/>
<path style="fill:#e0e7ec; stroke:none;" d="M98 24L101 26L98 24z"/>
<path style="fill:#2c6182; stroke:none;" d="M102 24L97 26L97 27C99.8676 27.6553 102.818 27.6328 102 24z"/>
<path style="fill:#a2b6c4; stroke:none;" d="M98 25L101 27L101 26L98 25z"/>
<path style="fill:#5384a1; stroke:none;" d="M101.333 25.6667L101.667 26.3333L101.333 25.6667z"/>
<path style="fill:#2c6182; stroke:none;" d="M150 30L150 33L135 37L134 46L138 46L139 50L148 50L148 51L138 52L138 56L134 56L134 66L132 56L128 56L127 52L119 53L119 49L128 49L132 45L131 40L130 40L130 45L129 45L126 41L128 45L126 43L113 50L110 52L111 56C100.231 61.7727 102.404 80.3197 92 86L88 96L89 104L88 104L87 102L85 122L89 122C89.1294 126.381 92.2381 131.226 88 134C93.4669 145.231 91.8135 153.438 105 160L104 162L114 164C105.818 181.789 130.558 178.604 136 187L137 187L140 184L138 188L143 184C137.46 195.792 153.136 190.819 160 191L160 192L157 193L162 193L187 208L191 208L191 212L209 213L203 209L203 208C207.159 204.914 203.403 201.83 200 200L200 195L199 195L199 200C191.885 198.08 191.814 194.947 192 188C186.069 185.23 184.572 180.067 180.454 175.518C172.518 166.749 157.811 154.798 157 142L153 135L150 136L146 129L144 130L132 122L133 117L129 112L133 114L134 106L130 107L134 105C130.315 89.3414 142.953 71.8131 156.116 64.6343C162.191 61.3211 168.258 61.2401 174 57L173 59L178 56L177 59L178 59C183.084 54.2167 188.023 60.1088 192.13 63.588C204.872 74.3813 221.21 77.2199 237 82L235 83L235 84L240 83L240 84L237 85L237 86C242.263 84.0797 242.453 78.6832 247.028 76.1111C251.246 73.7396 258.757 78.8019 260 73L261 73L263 75L264 71L253 71L254 67L245 69C244.074 64.6772 238.561 65.8799 235.611 62.6944C228.655 55.1814 216.204 33.923 204 37L205 35L202 41L201 41L202 36L199 36L200 33L195 33C190.17 28.1762 171.4 24.9095 164.576 26.4375C159.477 27.5792 155.434 30.2578 150 30z"/>
<path style="fill:#5384a1; stroke:none;" d="M0 30L0 66L2 80L2 81L0 88L6 85L5 93L4 93L3 90L2 90L2 100L5 99L0 105L3 118L0 118L0 152L1 152L2 137C4.29991 134.035 5.63085 129.249 10 131L11 131C10.287 119.78 3.34307 113.752 8 103L5 104C10.317 93.422 8.75613 80.3494 9.21296 69C9.47533 62.4819 12.5617 55.4899 11.4221 49C10.065 41.2721 4.88338 36.9145 3 30L0 30z"/>
<path style="fill:#2c6182; stroke:none;" d="M200 35L204 32L200 35M205.333 33.6667L205.667 34.3333L205.333 33.6667M132 34L133 38L134 38L132 34z"/>
<path style="fill:#5384a1; stroke:none;" d="M170 38L171 38L174 36L172 39C176.047 39.677 173.076 32.478 170 38z"/>
<path style="fill:#2c6182; stroke:none;" d="M249 35L247 41L248 41L249 35M137 36L138 37L137 36z"/>
<path style="fill:#a2b6c4; stroke:none;" d="M171 36L174 39L174 38L171 36z"/>
<path style="fill:#e0e7ec; stroke:none;" d="M172 36L172 38L174 38L172 36z"/>
<path style="fill:#a2b6c4; stroke:none;" d="M173 36L174 37L173 36z"/>
<path style="fill:#2c6182; stroke:none;" d="M129 37L129 40L130 40L129 37z"/>
<path style="fill:#5384a1; stroke:none;" d="M132 37L133 41L134 41L132 37M249 37L247 42L249 37M203 38L204 39L203 38z"/>
<path style="fill:#a2b6c4; stroke:none;" d="M204 38L203 40L203 41C205.158 40.0224 205.501 39.8117 204 38z"/>
<path style="fill:#5384a1; stroke:none;" d="M205 38L206 39L205 38z"/>
<path style="fill:#a2b6c4; stroke:none;" d="M132 39L133 45L134 45L132 39z"/>
<path style="fill:#e0e7ec; stroke:none;" d="M203.667 39.3333L204.333 39.6667L203.667 39.3333z"/>
<path style="fill:#103c65; stroke:none;" d="M138 40L136 43L138 40z"/>
<path style="fill:#5384a1; stroke:none;" d="M205 40L206 41L205 40z"/>
<path style="fill:#a2b6c4; stroke:none;" d="M249 40L245 42L245 43L249 47L250 47L249 40z"/>
<path style="fill:#2c6182; stroke:none;" d="M250 40L252 42L252 40L250 40z"/>
<path style="fill:#103c65; stroke:none;" d="M206.667 41.3333L207.333 41.6667L206.667 41.3333z"/>
<path style="fill:#e0e7ec; stroke:none;" d="M249 41L249 45L249 41z"/>
<path style="fill:#5384a1; stroke:none;" d="M250 41L251 42L250 41z"/>
<path style="fill:#103c65; stroke:none;" d="M204 42L205 43L204 42z"/>
<path style="fill:#2c6182; stroke:none;" d="M241 42L241 43L247 44L247 43L241 42z"/>
<path style="fill:#5384a1; stroke:none;" d="M243.667 42.3333L244.333 42.6667L243.667 42.3333z"/>
<path style="fill:#a2b6c4; stroke:none;" d="M251 42L250 44L251 42z"/>
<path style="fill:#5384a1; stroke:none;" d="M250 45L255 43L250 45z"/>
<path style="fill:#2c6182; stroke:none;" d="M255.667 42.3333L256.333 42.6667L255.667 42.3333z"/>
<path style="fill:#e0e7ec; stroke:none;" d="M132 43C130.956 47.0291 129.004 48.908 125 50L125 51L133 58L141 51L141 50L132 43z"/>
<path style="fill:#2c6182; stroke:none;" d="M252 43L252 44L255 44L252 43M120 44L121 45L120 44z"/>
<path style="fill:#5384a1; stroke:none;" d="M247 44L248 45L247 44z"/>
<path style="fill:#2c6182; stroke:none;" d="M251 44L252 45L251 44M69.2276 45.7616C63.7721 48.0418 67.6638 55.988 72.9414 54.338C79.346 52.3355 75.0504 43.3279 69.2276 45.7616z"/>
<path style="fill:#5384a1; stroke:none;" d="M131 45L132 46L131 45z"/>
<path style="fill:#2c6182; stroke:none;" d="M248 45L248 48L249 48L248 45z"/>
<path style="fill:#5384a1; stroke:none;" d="M70.2994 46.8904C66.9818 47.9639 68.5186 53.5332 71.9097 52.9398C76.0648 52.2128 74.2759 45.6037 70.2994 46.8904M128 46L127 50L128 50L130 46L128 46z"/>
<path style="fill:#a2b6c4; stroke:none;" d="M130.667 46.3333L131.333 46.6667L130.667 46.3333M134 46L135 47L134 46z"/>
<path style="fill:#5384a1; stroke:none;" d="M135 46L135 47L138 50L139 50L135 46z"/>
<path style="fill:#a2b6c4; stroke:none;" d="M129.333 47.6667L129.667 48.3333L129.333 47.6667M136.333 47.6667L136.667 48.3333L136.333 47.6667z"/>
<path style="fill:#5384a1; stroke:none;" d="M249.333 47.6667L249.667 48.3333L249.333 47.6667z"/>
<path style="fill:#a2b6c4; stroke:none;" d="M69 49L69 51L73 52L73 48L69 49z"/>
<path style="fill:#2c6182; stroke:none;" d="M87 48L89 50L87 48z"/>
<path style="fill:#5384a1; stroke:none;" d="M88 48L89 49L88 48z"/>
<path style="fill:#2c6182; stroke:none;" d="M111 48L112 49L111 48M115.667 48.3333L116.333 48.6667L115.667 48.3333z"/>
<path style="fill:#103c65; stroke:none;" d="M119 49L119 50L127 50L119 49z"/>
<path style="fill:#a2b6c4; stroke:none;" d="M128 49L129 50L128 49M137 49L138 50L137 49z"/>
<path style="fill:#103c65; stroke:none;" d="M140.667 49.3333L141.333 49.6667L140.667 49.3333z"/>
<path style="fill:#2c6182; stroke:none;" d="M249.333 49.6667L249.667 50.3333L249.333 49.6667z"/>
<path style="fill:#5384a1; stroke:none;" d="M119 50L124 52L124 51L119 50z"/>
<path style="fill:#a2b6c4; stroke:none;" d="M121 50L121 51L132 56C128.994 52.0193 125.947 50.4489 121 50M138 51L138 52L145 51L138 51z"/>
<path style="fill:#5384a1; stroke:none;" d="M142 51L142 52L148 51L142 51z"/>
<path style="fill:#103c65; stroke:none;" d="M116 52L118 54L118 52L116 52M119 52L120 53L119 52M122 52L122 53L126 53L122 52z"/>
<path style="fill:#5384a1; stroke:none;" d="M127 52L128 53L127 52M137 52L135 55L135 56C137.649 55.4324 138.355 54.4122 137 52z"/>
<path style="fill:#103c65; stroke:none;" d="M140 52L140 53L143 53L140 52z"/>
<path style="fill:#5384a1; stroke:none;" d="M128 53L131 56L131 55L128 53z"/>
<path style="fill:#a2b6c4; stroke:none;" d="M136 53L135 55L137 55L136 53z"/>
<path style="fill:#103c65; stroke:none;" d="M112 54L112 56L114 54L112 54z"/>
<path style="fill:#2c6182; stroke:none;" d="M14 55L15 56L14 55M91 55L92 56L91 55z"/>
<path style="fill:#103c65; stroke:none;" d="M115 55L116 56L115 55z"/>
<path style="fill:#a2b6c4; stroke:none;" d="M134 55L135 56L134 55z"/>
<path style="fill:#5384a1; stroke:none;" d="M174 56L175 57L174 56M173 59L174 57L173 57C167.69 61.1863 161.878 61.0596 156.116 64.1111C142.98 71.0676 129.378 89.3267 134 105L130 107L134 106C131.796 109.175 131.363 110.479 133 114L129 112L133 117L132 122L144 130L146 129L150 136L153 135L157 142C155.797 154.605 173.146 167.801 180.454 176.326C184.357 180.878 185.701 186.202 192 188C192.435 191.404 195.021 190.516 198 190L198 189L195 186L200 187L199 191C205.005 185.521 191.083 184.656 188 185L184 179L189 179C184.47 169.253 161.053 147.091 181 140L181 139L179 138L185 134L184 131L187 132L185 129L193 124L210 132L212 130L213 130L215 132L216 129L217 129L216 132L220 134L221 134C220.09 123.061 217.229 108.126 222.5 98.0046C225.379 92.4759 232.088 91.0458 235 86L240 86L240 85L237 86L237 85L240 84L240 83L235 84L235 83L237 82C226.659 77.4989 214.999 77.0504 205.17 72.6242C199.27 69.9676 194.492 64.6515 189.575 60.581C186.111 57.7142 181.255 54.5727 178 59L177 59L178 56L173 59z"/>
<path style="fill:#a2b6c4; stroke:none;" d="M133 57L132 64L133 64L133 57z"/>
<path style="fill:#5384a1; stroke:none;" d="M82.3333 58.6667L82.6667 59.3333L82.3333 58.6667z"/>
<path style="fill:#a2b6c4; stroke:none;" d="M83.3333 58.6667L83.6667 59.3333L83.3333 58.6667z"/>
<path style="fill:#5384a1; stroke:none;" d="M84.3333 58.6667L84.6667 59.3333L84.3333 58.6667z"/>
<path style="fill:#103c65; stroke:none;" d="M134 58L135 59L134 58z"/>
<path style="fill:#5384a1; stroke:none;" d="M170 58L171 59L170 58z"/>
<path style="fill:#e0e7ec; stroke:none;" d="M176 59C179.737 67.9897 182.504 76.0816 180.675 86C176.702 107.543 154.505 116.805 135 112L135 113C145.171 119.708 157.122 123.043 169 118.532C194.53 108.837 197.886 74.427 176 59z"/>
<path style="fill:#2c6182; stroke:none;" d="M82 60L82 61L85 61L82 60z"/>
<path style="fill:#103c65; stroke:none;" d="M131 60L131 63L132 63L131 60z"/>
<path style="fill:#2c6182; stroke:none;" d="M175 60L176 61L175 60z"/>
<path style="fill:#a2b6c4; stroke:none;" d="M176 60L177 61L176 60M178 60L179 61L178 60z"/>
<path style="fill:#2c6182; stroke:none;" d="M32 63L35 62L32 63z"/>
<path style="fill:#5384a1; stroke:none;" d="M133 61L132 66L133 61z"/>
<path style="fill:#a2b6c4; stroke:none;" d="M179 61L180 62L179 61M33 62L33 63L35 65L36 65L33 62z"/>
<path style="fill:#5384a1; stroke:none;" d="M35 62L36 63L35 62z"/>
<path style="fill:#2c6182; stroke:none;" d="M83 62L84 63L83 62z"/>
<path style="fill:#a2b6c4; stroke:none;" d="M177 62L178 63L177 62M180 62L181 63L180 62z"/>
<path style="fill:#5384a1; stroke:none;" d="M32 63L33 64L32 63z"/>
<path style="fill:#e0e7ec; stroke:none;" d="M33 63L35 65L35 63L33 63z"/>
<path style="fill:#2c6182; stroke:none;" d="M36.3333 63.6667L36.6667 64.3333L36.3333 63.6667z"/>
<path style="fill:#a2b6c4; stroke:none;" d="M181 63L182 64L181 63M2 64L3 68L6 64L2 64z"/>
<path style="fill:#2c6182; stroke:none;" d="M32 64L34 66L32 64z"/>
<path style="fill:#a2b6c4; stroke:none;" d="M33 64L34 65L33 64M178 64L179 65L178 64M182 64L183 65L182 64M184 64L183 65L186 67C186.104 74.1176 191.09 80.4699 190.87 88C190.388 104.53 176.039 118.622 160 120.231C153.873 120.846 147.919 118.121 142 119C148.935 125.186 160.425 124.948 169 122.869C195.034 116.556 206.892 82.1035 184 64z"/>
<path style="fill:#2c6182; stroke:none;" d="M248.667 64.3333L249.333 64.6667L248.667 64.3333z"/>
<path style="fill:#5384a1; stroke:none;" d="M34 65L35 66L34 65z"/>
<path style="fill:#2c6182; stroke:none;" d="M35 65L36 66L35 65z"/>
<path style="fill:#5384a1; stroke:none;" d="M184 65L185 66L184 65z"/>
<path style="fill:#a2b6c4; stroke:none;" d="M179 66L179 69L180 69L179 66z"/>
<path style="fill:#5384a1; stroke:none;" d="M185 67L186 68L185 67z"/>
<path style="fill:#103c65; stroke:none;" d="M243 68L244 69L243 68z"/>
<path style="fill:#a2b6c4; stroke:none;" d="M180 70C179.284 86.6729 168.743 110.07 150 112L150 113C169.852 112.577 188.524 89.7597 180 70z"/>
<path style="fill:#2c6182; stroke:none;" d="M264 72L265 73L264 72z"/>
<path style="fill:#a2b6c4; stroke:none;" d="M265.667 72.3333L266.333 72.6667L265.667 72.3333z"/>
<path style="fill:#5384a1; stroke:none;" d="M267 72L268 73L267 72z"/>
<path style="fill:#2c6182; stroke:none;" d="M268.667 72.3333L269.333 72.6667L268.667 72.3333z"/>
<path style="fill:#103c65; stroke:none;" d="M252.667 73.3333L253.333 73.6667L252.667 73.3333M256 73L258 75L258 73L256 73M260.333 73.6667L260.667 74.3333L260.333 73.6667z"/>
<path style="fill:#5384a1; stroke:none;" d="M263 73L264 74L263 73z"/>
<path style="fill:#e0e7ec; stroke:none;" d="M258 76L258 77L269 81C273.595 76.6329 274.015 82.1436 273 86L269 85L267 94L283 96C281.796 94.5248 279.088 93.5529 278.493 91.6867C277.705 89.2123 279.711 86.5921 279.262 84.0039C278.416 79.1239 271.005 73.7449 266.17 73.6119C263.541 73.5395 260.694 75.6081 258 76z"/>
<path style="fill:#a2b6c4; stroke:none;" d="M268 73L270 75L268 73z"/>
<path style="fill:#5384a1; stroke:none;" d="M269 73L270 74L269 73z"/>
<path style="fill:#a2b6c4; stroke:none;" d="M263 74L264 75L263 74z"/>
<path style="fill:#5384a1; stroke:none;" d="M246 77L249 76L246 77z"/>
<path style="fill:#a2b6c4; stroke:none;" d="M249 75L249 76L253 76L249 75z"/>
<path style="fill:#5384a1; stroke:none;" d="M253 75L254 76L253 75M260.667 75.3333L261.333 75.6667L260.667 75.3333z"/>
<path style="fill:#a2b6c4; stroke:none;" d="M262 75L263 76L262 75M270 75L271 76L270 75M247 76L248 77L247 76z"/>
<path style="fill:#e0e7ec; stroke:none;" d="M219 112L221 135C215.213 132.558 210.896 134.264 205.003 133.764C197.235 133.105 195.292 128.838 187 133L182 138C179.774 144.97 166.134 153.316 180 160L183 158L182 166L185 166C183.037 176.498 192.88 184.443 202 186L198 193L198 194L210 204L210 205L206 207L206 208C211.106 214.404 215.21 214 223 214L212.012 184.039L200 166C205.647 164.047 212.774 160.661 211 154L219 150L223 151L232 162C245.465 156.658 246.945 137.726 242 126C237.056 126.923 234.179 125.931 231 122L232.133 114.015L240 98L234 101L230 99L239 90L238 93L239 93L240 90L243 92L250 84L247 83C248.352 79.1502 249.949 77.6397 254 77C246.754 74.052 245.39 80.7191 241.235 84.7508C236.205 89.6316 228.278 89.9924 223.995 96.2593C220.656 101.145 222.963 107.26 219 112z"/>
<path style="fill:#a2b6c4; stroke:none;" d="M247 83L250 84L243 92L240 90L239 93L238 93L239 90L230 99L234 101L240 98L231 122C233.484 126.659 237.124 127.753 242 126C245.909 139.29 245.202 154.186 232 162L223 151L219 150L211 154C212.082 160.575 205.195 163.315 200 166L218.711 197.951L223.728 212.972L237 214L234.954 200.41L227.38 197.334L214 177L225.104 169.772L240.385 168.556L254 157L256.74 145L258.652 129.378L272.858 121.682L276 105L276 104C271.519 98.6862 278.575 97.2056 283 97L283 96L267 94L269 85L273 86C274.65 81.8676 272.845 75.0503 269 81C262.032 78.4437 249.38 71.5857 247 83z"/>
<path style="fill:#5384a1; stroke:none;" d="M255 76L256 77L255 76M271.667 76.3333L272.333 76.6667L271.667 76.3333z"/>
<path style="fill:#a2b6c4; stroke:none;" d="M273 76L274 77L273 76z"/>
<path style="fill:#5384a1; stroke:none;" d="M274 76L275 77L274 76z"/>
<path style="fill:#2c6182; stroke:none;" d="M275 76L275 77L281 81L281 80L275 76z"/>
<path style="fill:#5384a1; stroke:none;" d="M244 77L245 78L244 77z"/>
<path style="fill:#a2b6c4; stroke:none;" d="M245 77L246 78L245 77M275.667 77.3333L276.333 77.6667L275.667 77.3333M244.333 78.6667L244.667 79.3333L244.333 78.6667M277 78L280 85L281 85L277 78z"/>
<path style="fill:#5384a1; stroke:none;" d="M243.333 79.6667L243.667 80.3333L243.333 79.6667z"/>
<path style="fill:#a2b6c4; stroke:none;" d="M0.666667 80.3333L1.33333 80.6667L0.666667 80.3333z"/>
<path style="fill:#103c65; stroke:none;" d="M105 80L106 81L105 80z"/>
<path style="fill:#5384a1; stroke:none;" d="M237.667 81.3333L238.333 81.6667L237.667 81.3333M240 81L241 82L240 81z"/>
<path style="fill:#a2b6c4; stroke:none;" d="M243.333 81.6667L243.667 82.3333L243.333 81.6667z"/>
<path style="fill:#5384a1; stroke:none;" d="M280 81L281 82L280 81M109.333 82.6667L109.667 83.3333L109.333 82.6667z"/>
<path style="fill:#2c6182; stroke:none;" d="M232.667 82.3333L233.333 82.6667L232.667 82.3333z"/>
<path style="fill:#5384a1; stroke:none;" d="M241 82L241 84L243 82L241 82z"/>
<path style="fill:#a2b6c4; stroke:none;" d="M241 84L240 86L242 86L241 84M0 85L1 86L0 85M0 105L5 99L2 100L2 90L3 90L4 93L5 93L6 85C-2.36481 87.9375 0 97.6968 0 105z"/>
<path style="fill:#5384a1; stroke:none;" d="M280 85L281 86L280 85z"/>
<path style="fill:#2c6182; stroke:none;" d="M235 86L236 87L235 86z"/>
<path style="fill:#a2b6c4; stroke:none;" d="M238.667 86.3333L239.333 86.6667L238.667 86.3333M279 86C277.863 89.7728 276.663 92.5415 281 94L281 93L278 93L279 86M235.667 87.3333L236.333 87.6667L235.667 87.3333M270 87L273 89L270 87M232 88L232 90L234 88L232 88z"/>
<path style="fill:#5384a1; stroke:none;" d="M279 89L280 90L279 89z"/>
<path style="fill:#a2b6c4; stroke:none;" d="M229 90L230 91L229 90M231 90L232 91L231 90M228 91L229 92L228 91z"/>
<path style="fill:#5384a1; stroke:none;" d="M278 91L278 93L280 93L278 91z"/>
<path style="fill:#2c6182; stroke:none;" d="M279 91L280 92L279 91M70 92L69 95C72.0459 95.4838 73.0732 95.1768 73 92L72 92L73 95L70 95L70 92z"/>
<path style="fill:#5384a1; stroke:none;" d="M71 92L72 95L73 95L71 92z"/>
<path style="fill:#a2b6c4; stroke:none;" d="M227 92L225 93L225 94L227 92z"/>
<path style="fill:#2c6182; stroke:none;" d="M280 92L281 93L280 92z"/>
<path style="fill:#a2b6c4; stroke:none;" d="M70.3333 93.6667L70.6667 94.3333L70.3333 93.6667z"/>
<path style="fill:#e0e7ec; stroke:none;" d="M71.3333 93.6667L71.6667 94.3333L71.3333 93.6667z"/>
<path style="fill:#5384a1; stroke:none;" d="M281.667 93.3333L282.333 93.6667L281.667 93.3333z"/>
<path style="fill:#a2b6c4; stroke:none;" d="M224 94L225 95L224 94z"/>
<path style="fill:#e0e7ec; stroke:none;" d="M236 94L237 95L236 94z"/>
<path style="fill:#a2b6c4; stroke:none;" d="M5 95L5 99L6 99L5 95z"/>
<path style="fill:#5384a1; stroke:none;" d="M111.303 97.1713C108.57 98.6626 110.91 102.808 113.421 100.918C115.46 99.3843 113.75 95.8363 111.303 97.1713z"/>
<path style="fill:#a2b6c4; stroke:none;" d="M223 96L224 97L223 96M111 99L113 98L111 100L111 101L114 97L111 99M222.333 97.6667L222.667 98.3333L222.333 97.6667z"/>
<path style="fill:#5384a1; stroke:none;" d="M276 104L276 105C272.161 110.159 275.103 117.043 272.141 121.682C269.694 125.515 262.102 124.903 258.652 128.61C254.458 133.115 254.074 150.699 254 157L239.561 168.481L224.209 169.642L214 177C216.489 182.098 223.078 194.739 227.333 198.25C229.628 200.143 233.163 197.74 234.889 200.194C239.444 206.671 229.925 214 244 214C244.561 208.724 246.104 193.759 238 195L231 181C235.822 180.907 239.122 178.02 243 175.352C251.116 169.768 266.326 164.508 268 154C259.134 157.985 262.671 143.117 264.634 138C268.407 128.167 276.827 128.563 281.972 121.441C285.54 116.501 283 102.977 283 97C279.008 97.0855 269.342 99.2451 276 104z"/>
<path style="fill:#e0e7ec; stroke:none;" d="M112 98L111 100L113 100L112 98z"/>
<path style="fill:#a2b6c4; stroke:none;" d="M221 99L221 104L222 104L221 99M222.333 105.667L222.667 106.333L222.333 105.667z"/>
<path style="fill:#e0e7ec; stroke:none;" d="M249 106L253 123L261 121L257 109L253 106L249 106z"/>
<path style="fill:#a2b6c4; stroke:none;" d="M0 107L1 108L0 107M221 107L222 108L221 107M220 108L220 112L221 112L220 108z"/>
<path style="fill:#2c6182; stroke:none;" d="M12 109L13 110L12 109M132 111L135 110L132 111z"/>
<path style="fill:#a2b6c4; stroke:none;" d="M0 111L1 119L2 119L0 111z"/>
<path style="fill:#2c6182; stroke:none;" d="M18 111L17 112L17 114L18 115L20 115L21 114L21 112L20 111L18 111z"/>
<path style="fill:#e0e7ec; stroke:none;" d="M18.6667 112.333L19.3333 112.667L18.6667 112.333z"/>
<path style="fill:#a2b6c4; stroke:none;" d="M136 112L136 113L139 113L136 112M18.6667 113.333L19.3333 113.667L18.6667 113.333M142 113L142 114L149 114L142 113M137 114L138 115L137 114M219 114L220 115L219 114M138 115L139 116L138 115M220 115L221 116L220 115M140 116L141 117L140 116M219 116L219 121L220 121L219 116M142 117L143 118L142 117M140 118L141 119L140 118z"/>
<path style="fill:#5384a1; stroke:none;" d="M178 118L179 119L178 118z"/>
<path style="fill:#a2b6c4; stroke:none;" d="M2 120L3 121L2 120z"/>
<path style="fill:#2c6182; stroke:none;" d="M64.3333 122.667L64.6667 123.333L64.3333 122.667z"/>
<path style="fill:#a2b6c4; stroke:none;" d="M220 122L220 128L221 128L220 122z"/>
<path style="fill:#2c6182; stroke:none;" d="M282 122C273.206 125.554 266.813 129.418 263.908 139C262.362 144.1 258.938 159.365 268 154C265.333 164.189 251.184 169.097 243 174.671C239.234 177.236 235.654 180.591 231 181C229.898 186.962 234.45 190.683 238 195C245.582 195.357 244.266 208.466 244 214L271 214L272 208L271 208L270 210C265.779 204.019 258.695 205.565 258 196C263.64 195.175 268.416 191.55 270 186L267 186C271.313 175.851 277.677 180.199 282 188L283 188C283 179.115 286.048 166.386 274 166L282.623 147.983L274.877 137.96L282 122z"/>
<path style="fill:#5384a1; stroke:none;" d="M64 124L64 127L65 127L64 124z"/>
<path style="fill:#a2b6c4; stroke:none;" d="M185 129L187 132L184 131L185 134C182.796 135.047 179.56 136.422 181 139L181 140L174 145L182 138C185.243 137.105 186.826 136.466 187 133C194.987 130.023 196.563 132.857 204.015 133.839C209.974 134.624 215.019 133.179 221 135L216 132L217 129L216 129L215 132L213 130L212 130L210 132C209.552 129.24 205.614 128.975 203 128.093C194.436 125.204 192.747 123.766 185 129z"/>
<path style="fill:#2c6182; stroke:none;" d="M72.6667 126.333L73.3333 126.667L72.6667 126.333M62 127L62 129L64 127L62 127z"/>
<path style="fill:#a2b6c4; stroke:none;" d="M64 127L64 133L65 133L64 127z"/>
<path style="fill:#2c6182; stroke:none;" d="M65 127L67 129L67 127L65 127z"/>
<path style="fill:#103c65; stroke:none;" d="M282 127C272.542 134.889 273.043 140.502 283 146L282 127z"/>
<path style="fill:#5384a1; stroke:none;" d="M63 128L64 129L63 128M65 128L66 129L65 128z"/>
<path style="fill:#a2b6c4; stroke:none;" d="M183 128L184 129L183 128z"/>
<path style="fill:#2c6182; stroke:none;" d="M57 129L61 131L57 129z"/>
<path style="fill:#5384a1; stroke:none;" d="M60 129L60 130L64 132L60 129M65 132L70 130L65 132z"/>
<path style="fill:#2c6182; stroke:none;" d="M68 130L68 131L72 129L68 130z"/>
<path style="fill:#a2b6c4; stroke:none;" d="M219 129L220 130L219 129M221 129L221 134L222 134L221 129M0 131L1 132L0 131z"/>
<path style="fill:#2c6182; stroke:none;" d="M62 131L62 133L64 133L62 131M66 131L67 132L66 131M65 132L66 133L65 132z"/>
<path style="fill:#5384a1; stroke:none;" d="M64.3333 133.667L64.6667 134.333L64.3333 133.667z"/>
<path style="fill:#103c65; stroke:none;" d="M13 136L13 137L17 137L13 136z"/>
<path style="fill:#2c6182; stroke:none;" d="M64 135L64 138L65 138L64 135z"/>
<path style="fill:#103c65; stroke:none;" d="M9 136L10 137L9 136z"/>
<path style="fill:#2c6182; stroke:none;" d="M77 136L78 137L77 136z"/>
<path style="fill:#5384a1; stroke:none;" d="M26 137L28 142L14 150C22.0668 149.376 30.474 147.9 33 139L26 137z"/>
<path style="fill:#2c6182; stroke:none;" d="M72 139L72 140L77 140L77 139L74 138L72 139z"/>
<path style="fill:#a2b6c4; stroke:none;" d="M0 139L0 143L1 143L0 139z"/>
<path style="fill:#5384a1; stroke:none;" d="M73 139L72 142L73 142L73 139z"/>
<path style="fill:#e0e7ec; stroke:none;" d="M73 140L74 141L73 140z"/>
<path style="fill:#a2b6c4; stroke:none;" d="M74 140L73 142L74 140z"/>
<path style="fill:#103c65; stroke:none;" d="M106 140L107 141L106 140M5 142L6 149L10 150L15 142L5 142z"/>
<path style="fill:#5384a1; stroke:none;" d="M74 141L75 142L74 141z"/>
<path style="fill:#103c65; stroke:none;" d="M108 141L109 142L108 141M110 141L111 142L110 141z"/>
<path style="fill:#2c6182; stroke:none;" d="M73 142L74 143L73 142M77 142L78 143L77 142z"/>
<path style="fill:#5384a1; stroke:none;" d="M109.667 142.333L110.333 142.667L109.667 142.333M23 143L24 144L23 143z"/>
<path style="fill:#2c6182; stroke:none;" d="M35 143L36 144L35 143z"/>
<path style="fill:#103c65; stroke:none;" d="M105 143L107 145L105 143z"/>
<path style="fill:#e0e7ec; stroke:none;" d="M109.667 143.333L110.333 143.667L109.667 143.333z"/>
<path style="fill:#5384a1; stroke:none;" d="M109.667 144.333L110.333 144.667L109.667 144.333z"/>
<path style="fill:#a2b6c4; stroke:none;" d="M173 145L173 149L174 149L173 145z"/>
<path style="fill:#103c65; stroke:none;" d="M110 146L111 147L110 146M105 147L106 148L105 147z"/>
<path style="fill:#a2b6c4; stroke:none;" d="M174 149C171.127 158.414 178.729 162.547 183 170L185 166L182 166L183 158L180 160L174 149z"/>
<path style="fill:#5384a1; stroke:none;" d="M23 150L20 152C22.0485 152.242 23.8684 152.316 23 150z"/>
<path style="fill:#103c65; stroke:none;" d="M4 151L1 152L0 153L2 157L3 157L4 155L5 155L10 158L6 154L4 151M274 166L283 169L283 152C277.91 154.565 276.055 160.883 274 166M25 155L28 153L25 155z"/>
<path style="fill:#5384a1; stroke:none;" d="M2 159L3 160L2 159M181 159L182 160L181 159M0 162L0 180L1 180L1 175L6 178L6 173L11 176L12 172L9 173L8 170L1 165C12.4441 166.599 26.4772 165.878 27 182L23 183L19 203L14 202L10 208L17 214L17 213C15.1156 209.034 18.5586 205.856 22 204L21 201L28 191L28 190L26 184L31 183L27 171L27 170C29.5234 168.583 28.4584 167.517 26 167L27 163L0 162z"/>
<path style="fill:#103c65; stroke:none;" d="M117 162L118 163L117 162z"/>
<path style="fill:#2c6182; stroke:none;" d="M85.3179 164.042C80.2378 167.27 85.4977 176.232 90.7677 172.377C96.2717 168.352 90.9151 160.487 85.3179 164.042z"/>
<path style="fill:#a2b6c4; stroke:none;" d="M1 165C2.49495 168.647 3.95849 170.399 8 170L9 173L12 172L11 176L6 173L6 178L1 175L0 214L14 214L10 208L14 202L19 203L23 183L27 182C26.8123 166.151 13.2508 165.012 1 165z"/>
<path style="fill:#5384a1; stroke:none;" d="M85.757 166.046C82.9935 168.282 86.4924 172.902 89.3966 170.914C92.5693 168.743 88.8275 163.562 85.757 166.046z"/>
<path style="fill:#103c65; stroke:none;" d="M118 165L119 166L118 165z"/>
<path style="fill:#5384a1; stroke:none;" d="M148 165L148 168L149 168L148 165z"/>
<path style="fill:#a2b6c4; stroke:none;" d="M90 166C82.691 167.218 88.7817 173.309 90 166z"/>
<path style="fill:#103c65; stroke:none;" d="M115 166L113 169L115 166z"/>
<path style="fill:#2c6182; stroke:none;" d="M40 167L41 168L40 167z"/>
<path style="fill:#5384a1; stroke:none;" d="M40 168L40 169L44 169L40 168z"/>
<path style="fill:#2c6182; stroke:none;" d="M43 167L44 168L43 167z"/>
<path style="fill:#e0e7ec; stroke:none;" d="M87 167L87 170L89 169L89 168L87 167z"/>
<path style="fill:#5384a1; stroke:none;" d="M118 167L119 168L118 167z"/>
<path style="fill:#e0e7ec; stroke:none;" d="M41.6667 168.333L42.3333 168.667L41.6667 168.333z"/>
<path style="fill:#a2b6c4; stroke:none;" d="M117.667 168.333L118.333 168.667L117.667 168.333M148 168L149 169L148 168z"/>
<path style="fill:#2c6182; stroke:none;" d="M40 169L40 170L44 170L44 169L40 169z"/>
<path style="fill:#a2b6c4; stroke:none;" d="M41.6667 169.333L42.3333 169.667L41.6667 169.333z"/>
<path style="fill:#103c65; stroke:none;" d="M115 169L115 171L117 171L117 169L115 169z"/>
<path style="fill:#5384a1; stroke:none;" d="M117.667 169.333L118.333 169.667L117.667 169.333M147 169L144 171L148 173L147 169z"/>
<path style="fill:#e0e7ec; stroke:none;" d="M148 169L148 173L149 173L148 169z"/>
<path style="fill:#5384a1; stroke:none;" d="M149 169L150 170L149 169z"/>
<path style="fill:#103c65; stroke:none;" d="M151 169L152 170L151 169M118.333 170.667L118.667 171.333L118.333 170.667z"/>
<path style="fill:#a2b6c4; stroke:none;" d="M150.333 170.667L150.667 171.333L150.333 170.667z"/>
<path style="fill:#5384a1; stroke:none;" d="M151 172L154 170L151 172z"/>
<path style="fill:#a2b6c4; stroke:none;" d="M184.333 170.667L184.667 171.333L184.333 170.667z"/>
<path style="fill:#2c6182; stroke:none;" d="M111.333 171.667L111.667 172.333L111.333 171.667z"/>
<path style="fill:#e0e7ec; stroke:none;" d="M17.3333 172.667L17.6667 173.333L17.3333 172.667z"/>
<path style="fill:#103c65; stroke:none;" d="M115 172L115 175L116 175L115 172M145 172L146 173L145 172z"/>
<path style="fill:#5384a1; stroke:none;" d="M149 172L150 173L149 172z"/>
<path style="fill:#a2b6c4; stroke:none;" d="M185 172L187 175L185 172z"/>
<path style="fill:#5384a1; stroke:none;" d="M14.3333 173.667L14.6667 174.333L14.3333 173.667z"/>
<path style="fill:#e0e7ec; stroke:none;" d="M19.3333 173.667L19.6667 174.333L19.3333 173.667z"/>
<path style="fill:#103c65; stroke:none;" d="M117 173L117 176L118 176L117 173z"/>
<path style="fill:#a2b6c4; stroke:none;" d="M148 173L149 174L148 173z"/>
<path style="fill:#2c6182; stroke:none;" d="M112.333 174.667L112.667 175.333L112.333 174.667z"/>
<path style="fill:#5384a1; stroke:none;" d="M148.333 174.667L148.667 175.333L148.333 174.667z"/>
<path style="fill:#103c65; stroke:none;" d="M119 175L120 176L119 175z"/>
<path style="fill:#a2b6c4; stroke:none;" d="M187 175L187 177L189 177L187 175z"/>
<path style="fill:#e0e7ec; stroke:none;" d="M19.3333 176.667L19.6667 177.333L19.3333 176.667z"/>
<path style="fill:#2c6182; stroke:none;" d="M97 176L98 177L97 176z"/>
<path style="fill:#a2b6c4; stroke:none;" d="M189 177L184 179L188 185L195 185L195 184L189 177z"/>
<path style="fill:#2c6182; stroke:none;" d="M95 178L96 179L95 178z"/>
<path style="fill:#5384a1; stroke:none;" d="M96.3333 178.667L96.6667 179.333L96.3333 178.667z"/>
<path style="fill:#2c6182; stroke:none;" d="M97.3333 178.667L97.6667 179.333L97.3333 178.667M99 178L100 179L99 178z"/>
<path style="fill:#5384a1; stroke:none;" d="M267 186L270 186C267.653 191.026 263.375 194.602 258 196L262 207L271 208L272 208L271 214L283 214C282.31 205.729 285.324 194.849 281.992 187.09C278.375 178.669 269.724 175.562 267 186z"/>
<path style="fill:#e0e7ec; stroke:none;" d="M17 179L18 180L17 179z"/>
<path style="fill:#2c6182; stroke:none;" d="M71 183L74 182L71 183z"/>
<path style="fill:#a2b6c4; stroke:none;" d="M72.6667 182.333L73.3333 182.667L72.6667 182.333z"/>
<path style="fill:#5384a1; stroke:none;" d="M74 182L74 185L75 185L74 182z"/>
<path style="fill:#2c6182; stroke:none;" d="M96 182L97 183L96 182z"/>
<path style="fill:#5384a1; stroke:none;" d="M71 183L73 185L71 183z"/>
<path style="fill:#e0e7ec; stroke:none;" d="M72.6667 183.333L73.3333 183.667L72.6667 183.333z"/>
<path style="fill:#2c6182; stroke:none;" d="M71 184L72 185L71 184z"/>
<path style="fill:#a2b6c4; stroke:none;" d="M73 184L74 185L73 184z"/>
<path style="fill:#103c65; stroke:none;" d="M146.333 184.667L146.667 185.333L146.333 184.667z"/>
<path style="fill:#a2b6c4; stroke:none;" d="M196.667 184.333L197.333 184.667L196.667 184.333z"/>
<path style="fill:#e0e7ec; stroke:none;" d="M15 185L16 186L15 185z"/>
<path style="fill:#2c6182; stroke:none;" d="M72.6667 185.333L73.3333 185.667L72.6667 185.333z"/>
<path style="fill:#a2b6c4; stroke:none;" d="M198 185L199 186L198 185z"/>
<path style="fill:#5384a1; stroke:none;" d="M144 186L144 187L147 188L144 186z"/>
<path style="fill:#103c65; stroke:none;" d="M149 186L151 188L151 186L149 186z"/>
<path style="fill:#2c6182; stroke:none;" d="M195 186L199 190L200 187L195 186z"/>
<path style="fill:#a2b6c4; stroke:none;" d="M200 186L201 191L202 191L200 186z"/>
<path style="fill:#5384a1; stroke:none;" d="M142 187C142.581 190.49 143.44 191.547 147 191L147 190L143 191L142 187z"/>
<path style="fill:#a2b6c4; stroke:none;" d="M143 187L143 188L146 189L143 190L143 191L147 190L147 188L143 187z"/>
<path style="fill:#e0e7ec; stroke:none;" d="M143 188L143 190L146 190L146 188L143 188z"/>
<path style="fill:#2c6182; stroke:none;" d="M136 189L137 190L136 189z"/>
<path style="fill:#a2b6c4; stroke:none;" d="M192 191L194 199L196 199L196 195L201 193C198.655 189.694 195.705 190.345 192 191z"/>
<path style="fill:#5384a1; stroke:none;" d="M192 192L193 193L192 192z"/>
<path style="fill:#e0e7ec; stroke:none;" d="M3.66667 193.333L4.33333 193.667L3.66667 193.333z"/>
<path style="fill:#5384a1; stroke:none;" d="M193 193L194 194L193 193M192 194L194 199L192 194M199 194L201 196L199 194z"/>
<path style="fill:#a2b6c4; stroke:none;" d="M200 194L201 195L200 194z"/>
<path style="fill:#5384a1; stroke:none;" d="M194.333 195.667L194.667 196.333L194.333 195.667M196 195L195 200L199 200L199 195L196 195z"/>
<path style="fill:#a2b6c4; stroke:none;" d="M200 196L202 198L200 196z"/>
<path style="fill:#5384a1; stroke:none;" d="M200 197L201 198L200 197M6 198L9 205L13 203L13 202L6 198M200 199L200 200L205 203L203 198L200 199z"/>
<path style="fill:#a2b6c4; stroke:none;" d="M203 198L204 199L203 198z"/>
<path style="fill:#e0e7ec; stroke:none;" d="M1 199L2 200L1 199z"/>
<path style="fill:#5384a1; stroke:none;" d="M24 199L25 200L24 199z"/>
<path style="fill:#a2b6c4; stroke:none;" d="M213 199L214 202L215 202L213 199z"/>
<path style="fill:#2c6182; stroke:none;" d="M169.667 200.333L170.333 200.667L169.667 200.333M173 200L174 201L173 200M166.667 201.333L167.333 201.667L166.667 201.333z"/>
<path style="fill:#a2b6c4; stroke:none;" d="M204 201L205 202L204 201z"/>
<path style="fill:#2c6182; stroke:none;" d="M171 203L171 204L175 203L171 203M169 203L170 204L169 203z"/>
<path style="fill:#a2b6c4; stroke:none;" d="M172.667 203.333L173.333 203.667L172.667 203.333z"/>
<path style="fill:#5384a1; stroke:none;" d="M174 203L174 206L175 206L174 203M205 203L203 208L203 209L208 212L208 211L205 203z"/>
<path style="fill:#a2b6c4; stroke:none;" d="M206 203L207 204L206 203z"/>
<path style="fill:#5384a1; stroke:none;" d="M171.333 204.667L171.667 205.333L171.333 204.667z"/>
<path style="fill:#e0e7ec; stroke:none;" d="M172.667 204.333L173.333 204.667L172.667 204.333z"/>
<path style="fill:#a2b6c4; stroke:none;" d="M207 206L210 205L207 206z"/>
<path style="fill:#e0e7ec; stroke:none;" d="M3 205L2 208L5 206L3 205z"/>
<path style="fill:#a2b6c4; stroke:none;" d="M172.667 205.333L173.333 205.667L172.667 205.333z"/>
<path style="fill:#5384a1; stroke:none;" d="M19 208L22 208L21 206L19 208z"/>
<path style="fill:#2c6182; stroke:none;" d="M87.3333 206.667L87.6667 207.333L87.3333 206.667M172 208L175 207L172 208z"/>
<path style="fill:#a2b6c4; stroke:none;" d="M206 206L207 207L206 206M206 208L208 211L206 208z"/>
<path style="fill:#2c6182; stroke:none;" d="M282 208L282 211L283 211L282 208z"/>
<path style="fill:#e0e7ec; stroke:none;" d="M0 210L1 211L0 210z"/>
<path style="fill:#5384a1; stroke:none;" d="M69 210L69 212L71 210L69 210z"/>
<path style="fill:#2c6182; stroke:none;" d="M70 211L71 212L70 211M79 211L80 212L79 211z"/>
<path style="fill:#a2b6c4; stroke:none;" d="M208 211L209 212L208 211z"/>
<path style="fill:#e0e7ec; stroke:none;" d="M4 212L5 213L4 212z"/>
<path style="fill:#2c6182; stroke:none;" d="M139 213L139 214L145 214L139 213z"/>
<path style="fill:#a2b6c4; stroke:none;" d="M209 212L210 213L209 212z"/>
<path style="fill:#2c6182; stroke:none;" d="M112 213L113 214L112 213z"/>
<path style="fill:#5384a1; stroke:none;" d="M113.667 213.333L114.333 213.667L113.667 213.333z"/>
<path style="fill:#2c6182; stroke:none;" d="M115 213L116 214L115 213z"/>
<path style="fill:#5384a1; stroke:none;" d="M140 213L141 214L140 213z"/>
<path style="fill:#a2b6c4; stroke:none;" d="M141.667 213.333L142.333 213.667L141.667 213.333z"/>
<path style="fill:#5384a1; stroke:none;" d="M143 213L144 214L143 213z"/>
<path style="fill:#103c65; stroke:none;" d="M200 213L201 214L200 213M208 213L209 214L208 213z"/>
<path style="fill:#5384a1; stroke:none;" d="M209 213L210 214L209 213z"/>
</svg>
