<?xml version="1.0" standalone="no"?>
<!DOCTYPE svg PUBLIC "-//W3C//DTD SVG 20010904//EN"
 "http://www.w3.org/TR/2001/REC-SVG-20010904/DTD/svg10.dtd">
<svg version="1.0" xmlns="http://www.w3.org/2000/svg"
 width="512.000000pt" height="512.000000pt" viewBox="0 0 512.000000 512.000000"
 preserveAspectRatio="xMidYMid meet">
<metadata>
Created by potrace 1.16, written by Peter Selinger 2001-2019
</metadata>
<g transform="translate(0.000000,512.000000) scale(0.100000,-0.100000)"
fill="#000000" stroke="none">
<path d="M203 4958 c-174 -172 -196 -198 -191 -231 3 -19 32 5 192 163 103
102 192 193 197 203 8 14 5 17 -17 17 -21 0 -60 -33 -181 -152z"/>
<path d="M303 4858 c-140 -139 -264 -265 -275 -281 -10 -15 -18 -37 -16 -50 3
-18 49 23 292 263 158 157 292 293 297 303 8 14 5 17 -17 17 -22 0 -75 -47
-281 -252z"/>
<path d="M402 4758 c-194 -194 -362 -365 -373 -381 -11 -15 -19 -37 -17 -50 4
-18 67 40 392 363 213 212 392 393 397 403 8 14 5 17 -18 17 -22 0 -89 -62
-381 -352z"/>
<path d="M502 4658 c-249 -249 -462 -465 -473 -481 -11 -15 -19 -37 -17 -50 4
-18 84 57 492 463 268 267 492 493 497 503 8 14 5 17 -18 17 -22 0 -104 -76
-481 -452z"/>
<path d="M602 4558 c-304 -304 -562 -565 -573 -581 -11 -15 -19 -37 -17 -50 4
-18 101 75 592 563 323 322 592 593 597 603 8 14 5 17 -18 17 -23 0 -118 -91
-581 -552z"/>
<path d="M702 4458 c-359 -359 -662 -665 -673 -681 -11 -15 -19 -37 -17 -50 4
-18 118 92 692 663 378 377 692 693 697 703 8 14 5 17 -18 17 -23 0 -133 -106
-681 -652z"/>
<path d="M802 4358 c-414 -414 -762 -765 -773 -781 -11 -15 -19 -37 -17 -50 4
-18 136 109 792 763 433 432 792 793 797 803 8 14 5 17 -18 17 -23 0 -148
-120 -781 -752z"/>
<path d="M902 4258 c-469 -469 -862 -865 -873 -881 -11 -15 -19 -37 -17 -50 4
-18 153 126 892 863 488 487 892 893 897 903 8 14 5 17 -18 17 -23 0 -162
-135 -881 -852z"/>
<path d="M1002 4158 c-524 -524 -962 -965 -973 -981 -11 -15 -19 -37 -17 -50
4 -18 170 144 992 963 543 542 992 993 997 1003 8 14 5 17 -18 17 -23 0 -177
-149 -981 -952z"/>
<path d="M1651 4610 c-612 -604 -513 -505 -1131 -1131 -417 -421 -510 -521
-510 -542 0 -15 3 -27 7 -27 4 0 191 183 416 408 325 324 405 399 392 367 -10
-22 -28 -69 -40 -104 -23 -62 -35 -75 -399 -440 -308 -309 -376 -382 -376
-404 0 -15 3 -27 7 -27 4 0 169 161 367 358 197 196 356 350 353 341 -3 -9 -8
-42 -12 -75 l-7 -59 -354 -356 c-292 -293 -354 -360 -354 -382 0 -23 3 -26 18
-18 9 5 166 159 347 341 l330 330 5 -57 5 -58 -352 -356 c-288 -290 -353 -360
-353 -382 0 -15 3 -27 7 -27 4 0 164 156 355 347 324 323 347 345 352 320 19
-87 47 -50 -348 -447 -302 -302 -366 -371 -366 -393 0 -23 3 -26 18 -18 9 5
174 168 367 360 192 193 353 351 356 351 4 0 12 -21 18 -47 l12 -46 -385 -387
c-319 -319 -386 -391 -386 -413 0 -23 3 -26 18 -18 9 5 186 179 392 385 206
207 378 376 381 376 4 0 14 -19 23 -42 l17 -41 -415 -417 c-342 -342 -416
-421 -416 -443 0 -15 3 -27 7 -27 4 0 197 189 429 421 l421 421 22 -37 c11
-20 21 -39 21 -43 0 -3 -202 -209 -450 -457 -374 -375 -450 -456 -450 -478 0
-23 3 -26 18 -18 9 5 219 212 466 460 l450 450 27 -37 28 -37 -494 -495 c-409
-410 -495 -501 -495 -523 0 -15 3 -27 7 -27 4 0 234 226 510 502 l503 503 32
-33 33 -32 -543 -543 c-453 -453 -542 -547 -542 -570 0 -23 3 -26 18 -18 9 5
260 253 557 550 297 298 544 541 549 541 6 0 23 -12 38 -27 l28 -27 -595 -596
c-498 -499 -595 -600 -595 -623 0 -23 3 -26 18 -18 9 5 287 280 616 609 l599
600 39 -26 39 -25 -655 -657 c-546 -546 -656 -660 -656 -683 0 -15 3 -27 7
-27 4 0 310 302 679 671 l671 671 43 -22 43 -22 -722 -722 c-606 -606 -721
-726 -721 -749 0 -23 3 -26 18 -18 9 5 345 338 746 739 l728 729 42 -15 c22
-9 43 -17 46 -19 2 -2 -352 -360 -788 -796 -666 -667 -792 -797 -792 -820 0
-23 3 -26 18 -18 9 5 379 372 820 814 l804 804 46 -10 c26 -6 49 -12 52 -14 2
-2 -388 -396 -868 -876 -735 -735 -872 -877 -872 -900 0 -23 3 -26 18 -18 9 5
415 408 902 895 l885 886 65 0 65 0 -943 -943 c-518 -518 -942 -946 -942 -950
0 -4 12 -7 27 -7 23 0 182 155 978 949 l950 949 68 4 68 4 -946 -946 c-520
-520 -945 -949 -945 -953 0 -4 12 -7 27 -7 23 0 184 156 988 960 l960 960 67
19 c36 10 77 22 89 26 13 4 -416 -433 -953 -972 -538 -538 -978 -982 -978
-986 0 -4 12 -7 27 -7 23 0 192 164 1043 1014 715 714 1030 1021 1065 1041
187 104 377 291 471 463 32 58 165 195 1045 1077 845 846 1009 1015 1009 1038
0 15 -3 27 -7 27 -4 0 -445 -437 -980 -972 l-972 -972 24 77 c14 43 25 83 25
90 0 6 430 442 955 967 800 800 955 960 955 983 0 15 -3 27 -7 27 -4 0 -430
-422 -945 -937 l-938 -938 6 70 6 70 939 940 c786 787 939 945 939 968 0 15
-3 27 -7 27 -4 0 -427 -419 -939 -931 l-931 -931 -6 58 -5 59 889 890 c489
490 889 894 889 898 0 4 -12 7 -27 7 -23 0 -169 -142 -893 -866 l-866 -865
-12 53 -13 52 806 806 c443 443 805 809 805 813 0 4 -12 7 -27 7 -23 0 -157
-130 -813 -785 l-785 -785 -17 48 -17 47 729 730 c402 402 730 734 730 738 0
4 -12 7 -27 7 -23 0 -146 -118 -738 -710 -391 -390 -713 -710 -716 -710 -3 0
-14 18 -24 41 l-19 40 662 662 c364 364 662 666 662 670 0 4 -12 7 -27 7 -23
0 -136 -109 -675 -647 -356 -356 -649 -645 -650 -642 -2 2 -14 19 -27 38 l-23
33 601 602 c330 331 601 605 601 609 0 4 -12 7 -27 7 -23 0 -127 -100 -616
-587 l-588 -588 -29 35 -29 35 544 545 c300 300 545 549 545 553 0 4 -12 7
-27 7 -23 0 -119 -92 -563 -535 l-536 -535 -32 33 -32 33 486 484 c267 267
490 493 495 503 8 14 5 17 -18 17 -23 0 -108 -81 -514 -486 l-487 -487 -37 28
-36 28 450 451 c248 249 451 455 451 459 0 4 -12 7 -27 7 -22 0 -105 -78 -473
-444 l-445 -444 -30 19 c-16 10 -34 21 -40 23 -5 2 176 190 403 418 226 227
412 417 412 421 0 4 -12 7 -27 7 -22 0 -99 -72 -434 -407 l-408 -406 -46 18
-47 17 381 382 c210 210 381 385 381 389 0 4 -12 7 -27 7 -22 0 -95 -68 -407
-379 l-381 -379 -48 17 -47 16 346 345 c190 190 350 353 355 363 8 14 5 17
-18 17 -22 0 -89 -62 -383 -355 l-356 -356 -58 7 -58 7 341 341 c188 188 341
345 341 349 0 4 -12 7 -27 7 -22 0 -90 -63 -373 -345 l-346 -345 -64 0 -65 0
338 338 c185 186 337 341 337 345 0 4 -12 7 -27 7 -22 0 -90 -63 -372 -344
-332 -330 -348 -344 -391 -351 -25 -3 -58 -9 -75 -11 -25 -5 33 57 318 343
191 192 347 352 347 356 0 4 -12 7 -27 7 -22 0 -94 -67 -397 -369 -302 -300
-379 -371 -411 -381 -22 -7 -69 -26 -105 -42 l-65 -29 403 403 c221 222 402
407 402 411 0 4 -12 7 -27 7 -21 0 -119 -92 -532 -500z m259 -543 c0 -1 -190
-193 -423 -425 l-424 -424 8 54 c4 29 8 62 8 73 1 12 135 154 343 362 300 300
347 344 383 352 38 8 105 14 105 8z m-75 -277 c-153 -153 -280 -278 -282 -277
-1 2 3 22 9 47 10 38 9 45 -5 54 -14 9 16 44 205 233 l223 223 65 0 65 0 -280
-280z m403 247 l32 -12 -359 -359 -359 -359 -7 58 -8 57 314 314 c211 211 320
314 334 313 11 0 35 -6 53 -12z m-578 -20 c0 -1 -122 -124 -270 -272 -165
-164 -267 -259 -261 -243 73 195 270 401 474 493 57 26 57 26 57 22z m747 -51
c1 -1 -182 -186 -407 -411 l-408 -408 -15 49 -15 49 381 382 381 382 40 -21
c23 -11 42 -21 43 -22z m113 -71 c6 -7 -147 -167 -424 -444 l-433 -433 -21 37
c-12 20 -22 39 -22 43 0 4 188 195 417 424 l417 417 29 -17 c16 -9 32 -22 37
-27z m85 -75 l29 -31 -439 -439 c-422 -422 -440 -439 -458 -422 -52 47 -71 23
394 488 239 239 436 434 440 434 3 0 18 -14 34 -30z m98 -103 l25 -34 -426
-426 c-235 -235 -432 -427 -437 -427 -6 1 -23 12 -40 25 l-30 25 435 435 c239
239 438 435 441 435 4 0 18 -15 32 -33z m97 -157 c0 -3 -179 -184 -397 -402
l-398 -397 -45 20 -44 20 419 419 420 420 22 -38 c13 -20 23 -39 23 -42z
m-1355 -50 c-19 -28 -47 -84 -62 -125 -26 -71 -36 -83 -169 -216 l-141 -141
-8 57 -7 58 209 209 c114 114 209 208 210 208 1 0 -14 -23 -32 -50z m1398 -54
l15 -43 -343 -343 -343 -343 -57 8 -58 7 379 379 c208 208 382 379 386 379 3
0 13 -20 21 -44z m40 -171 l7 -41 -248 -247 c-263 -263 -267 -266 -362 -267
-34 0 -26 9 275 310 194 194 312 305 316 297 3 -6 9 -30 12 -52z m-1657 -304
l-114 -114 -15 49 -15 49 126 128 127 127 3 -62 3 -62 -115 -115z m1660 75
c-3 -12 -182 -197 -398 -412 l-393 -392 -69 -5 -69 -5 464 464 464 464 3 -47
c2 -26 1 -56 -2 -67z m-1519 -73 l11 -48 -103 -104 -103 -104 -22 43 -22 43
108 108 c60 60 111 109 114 109 3 0 11 -21 17 -47z m1487 -83 c-36 -122 -48
-138 -257 -348 -111 -112 -215 -210 -231 -219 -28 -14 -162 -63 -175 -63 -3 0
147 153 334 340 187 187 341 340 342 340 1 0 -5 -23 -13 -50z m-1428 -59 l21
-39 -98 -98 c-54 -54 -100 -96 -102 -93 -2 2 -14 19 -27 37 l-23 34 99 99 c54
54 101 99 104 99 3 0 15 -18 26 -39z m17 -243 l-97 -98 -33 32 -33 32 97 98
97 98 33 -32 33 -32 -97 -98z m174 37 c18 -11 33 -22 33 -25 0 -3 -44 -49 -98
-103 l-98 -98 -36 28 -37 28 97 98 c53 53 99 96 102 94 3 -1 20 -11 37 -22z
m149 -76 l28 -10 -104 -104 c-58 -58 -109 -105 -114 -105 -5 0 -24 10 -43 21
l-35 22 99 99 c104 104 101 103 169 77z m284 -155 l-155 -155 -50 6 c-27 3
-52 8 -54 11 -10 10 254 264 274 264 11 0 43 7 70 14 28 8 54 15 60 15 5 1
-60 -69 -145 -155z m-107 118 c14 -6 -5 -29 -101 -125 l-118 -117 -48 16 -48
17 108 108 c103 103 111 109 149 108 22 0 48 -4 58 -7z"/>
<path d="M2896 2250 c-1219 -1218 -2222 -2223 -2227 -2232 -8 -15 -5 -18 18
-18 24 0 356 328 2211 2182 1201 1201 2192 2195 2203 2211 11 15 19 37 17 50
-4 18 -383 -356 -2222 -2193z"/>
<path d="M4208 3363 c-890 -890 -897 -897 -918 -878 -11 10 -22 16 -23 14 -2
-2 -28 -44 -57 -94 -44 -74 -83 -120 -224 -260 -141 -141 -186 -179 -258 -220
-48 -28 -87 -55 -88 -61 0 -6 7 -17 16 -25 13 -11 -104 -132 -890 -918 -498
-499 -906 -910 -906 -914 0 -4 12 -7 27 -7 23 0 174 146 923 895 l896 895 32
-33 32 -32 -846 -845 c-465 -465 -850 -853 -855 -862 -8 -15 -5 -18 18 -18 23
0 161 133 873 845 l846 845 32 -33 32 -32 -796 -795 c-437 -437 -800 -803
-805 -812 -8 -15 -5 -18 18 -18 23 0 154 126 823 795 l796 795 32 -33 32 -32
-746 -745 c-410 -410 -750 -753 -755 -763 -8 -14 -5 -17 18 -17 23 0 146 119
773 745 l746 745 32 -33 32 -32 -696 -695 c-382 -382 -700 -703 -705 -712 -8
-15 -5 -18 18 -18 23 0 139 112 723 695 l696 695 32 -33 32 -32 -646 -645
c-355 -355 -650 -653 -655 -662 -8 -15 -5 -18 18 -18 23 0 132 104 673 645
l646 645 32 -33 32 -33 -596 -594 c-327 -327 -600 -603 -605 -613 -8 -14 -5
-17 18 -17 23 0 124 97 623 595 l596 595 32 -33 32 -33 -546 -544 c-300 -300
-550 -553 -555 -562 -8 -15 -5 -18 18 -18 23 0 117 90 573 545 l546 545 32
-33 32 -33 -496 -494 c-272 -272 -500 -503 -505 -513 -8 -14 -5 -17 18 -17 23
0 110 83 523 495 l496 495 32 -33 32 -33 -446 -444 c-245 -245 -450 -453 -455
-462 -8 -15 -5 -18 18 -18 22 0 103 76 478 449 l450 449 30 -19 c17 -10 35
-21 40 -23 6 -2 -178 -192 -407 -423 -230 -230 -418 -422 -418 -426 0 -4 12
-7 27 -7 22 0 102 74 447 418 l421 419 54 -10 54 -9 -402 -402 c-220 -221
-401 -405 -401 -409 0 -4 12 -7 27 -7 22 0 101 74 442 414 395 392 419 414
471 430 72 23 137 65 194 126 47 51 106 158 106 194 0 13 151 171 410 431 336
337 410 416 410 438 0 15 -3 27 -7 27 -4 0 -186 -178 -404 -396 l-397 -397 -4
59 -4 59 408 411 c338 339 408 415 408 437 0 23 -3 26 -17 18 -10 -5 -198
-190 -418 -410 l-400 -401 -22 43 -22 42 440 440 c362 363 439 446 439 468 0
15 -3 27 -7 27 -4 0 -209 -201 -455 -447 l-448 -448 -32 33 -33 32 488 488
c403 403 487 493 487 515 0 15 -3 27 -7 27 -4 0 -232 -224 -505 -497 l-498
-498 -32 33 -33 32 538 538 c445 446 537 542 537 565 0 15 -3 27 -7 27 -4 0
-254 -246 -555 -547 l-548 -548 -32 33 -33 32 588 588 c487 488 587 592 587
615 0 15 -3 27 -7 27 -4 0 -277 -269 -605 -597 l-598 -598 -32 33 -33 32 638
638 c530 530 637 642 637 665 0 15 -3 27 -7 27 -4 0 -299 -291 -655 -647
l-648 -648 -32 33 -33 32 688 688 c572 573 687 692 687 715 0 15 -3 27 -7 27
-4 0 -322 -314 -705 -697 l-698 -698 -32 33 -33 32 738 738 c615 615 737 742
737 765 0 15 -3 27 -7 27 -4 0 -344 -336 -755 -747 l-748 -748 -32 33 -33 32
788 788 c657 658 787 792 787 815 0 15 -3 27 -7 27 -4 0 -367 -359 -805 -797
l-798 -798 -32 33 -33 32 838 838 c700 700 837 842 837 865 0 15 -3 27 -7 27
-4 0 -389 -381 -855 -847 l-848 -848 -32 33 -33 32 888 888 c742 742 887 892
887 915 0 15 -3 27 -7 27 -4 0 -411 -404 -905 -897z"/>
<path d="M4196 950 c-504 -503 -922 -923 -927 -932 -8 -15 -5 -18 18 -18 23 0
167 139 911 882 486 486 892 895 903 911 11 15 19 37 17 50 -4 18 -158 -132
-922 -893z"/>
<path d="M4296 850 c-449 -448 -822 -823 -827 -832 -8 -15 -5 -18 18 -18 23 0
152 124 811 783 431 430 792 794 803 810 11 15 19 37 17 50 -4 18 -141 -114
-822 -793z"/>
<path d="M4396 750 c-394 -393 -722 -723 -727 -732 -8 -15 -5 -18 18 -18 23 0
137 110 711 683 376 375 692 694 703 710 11 15 19 37 17 50 -4 18 -124 -97
-722 -693z"/>
<path d="M4496 650 c-339 -338 -622 -623 -627 -632 -8 -15 -5 -18 18 -18 23 0
123 95 611 583 321 320 592 594 603 610 11 15 19 37 17 50 -4 18 -106 -80
-622 -593z"/>
<path d="M4596 550 c-284 -283 -522 -523 -527 -533 -8 -14 -5 -17 18 -17 23 0
108 81 511 483 266 265 492 494 503 510 11 15 19 37 17 50 -4 18 -89 -62 -522
-493z"/>
<path d="M4696 450 c-229 -228 -422 -423 -427 -432 -8 -15 -5 -18 18 -18 22 0
93 66 411 383 211 210 392 394 403 410 11 15 19 37 17 50 -4 18 -72 -45 -422
-393z"/>
<path d="M4796 350 c-174 -173 -322 -323 -327 -332 -8 -15 -5 -18 17 -18 23 0
80 52 312 282 156 156 293 295 303 311 11 15 19 37 17 50 -4 18 -54 -28 -322
-293z"/>
<path d="M4896 250 c-119 -118 -222 -223 -227 -232 -8 -15 -5 -18 17 -18 21 0
65 37 211 183 205 202 226 227 221 260 -3 19 -37 -11 -222 -193z"/>
<path d="M4996 150 c-136 -133 -149 -150 -111 -150 18 0 49 23 111 82 102 98
127 130 122 161 -3 19 -19 7 -122 -93z"/>
</g>
</svg>
